<svg width="111" height="39" viewBox="0 0 111 39" fill="none" xmlns="http://www.w3.org/2000/svg">
<path d="M0.738 28V26.866L15.06 2.59H4.602L1.914 8.134H1.242V0.279999H20.478V1.414L6.114 25.69H17.496L20.268 19.726H20.94V28H0.738ZM34.8663 28.42C32.1223 28.42 29.9523 27.594 28.3563 25.942C26.7603 24.29 25.9623 22.092 25.9623 19.348C25.9623 17.276 26.3823 15.428 27.2223 13.804C28.0903 12.18 29.2243 10.92 30.6243 10.024C32.0523 9.1 33.5923 8.638 35.2443 8.638C37.4843 8.638 39.2343 9.408 40.4943 10.948C41.7543 12.46 42.3983 14.644 42.4263 17.5L42.2163 17.71H29.8263C29.8543 18.998 30.0923 20.188 30.5403 21.28C31.0163 22.372 31.7583 23.254 32.7663 23.926C33.8023 24.598 35.1883 24.934 36.9243 24.934C38.5203 24.934 40.3263 24.402 42.3423 23.338H42.4683V23.842C41.7963 25.13 40.8023 26.222 39.4863 27.118C38.1703 27.986 36.6303 28.42 34.8663 28.42ZM34.4883 10.486C33.2563 10.486 32.2343 10.948 31.4223 11.872C30.6383 12.796 30.1343 14.098 29.9103 15.778H38.8563C38.5763 13.874 38.0723 12.516 37.3443 11.704C36.6163 10.892 35.6643 10.486 34.4883 10.486ZM46.3031 28V27.328L48.9911 25.984V13.426L46.4291 11.326V10.99L52.2251 8.638H52.5191L52.8971 11.746H53.1071C54.1711 10.71 55.1931 9.94 56.1731 9.436C57.1531 8.904 58.2591 8.638 59.4911 8.638C61.1151 8.638 62.4591 9.058 63.5231 9.898C64.6151 10.71 65.1611 11.942 65.1611 13.594V25.984L67.8071 27.328V28H58.3991V27.328L61.1711 25.984V15.526C61.1711 14.322 60.8071 13.426 60.0791 12.838C59.3511 12.222 58.4131 11.914 57.2651 11.914C56.5651 11.914 55.7951 12.026 54.9551 12.25C54.1151 12.474 53.4431 12.824 52.9391 13.3V25.984L55.7111 27.328V28H46.3031ZM80.0645 28.42C77.3485 28.42 75.1925 27.594 73.5965 25.942C72.0005 24.29 71.2025 22.092 71.2025 19.348C71.2025 17.276 71.6225 15.428 72.4625 13.804C73.3305 12.18 74.5065 10.92 75.9905 10.024C77.4745 9.1 79.1685 8.638 81.0725 8.638C82.2485 8.638 83.3685 8.834 84.4325 9.226C85.4965 9.59 86.3085 10.08 86.8685 10.696C87.2885 11.2 87.4985 11.62 87.4985 11.956C87.4985 12.18 87.4565 12.362 87.3725 12.502C87.3165 12.614 87.1905 12.768 86.9945 12.964L85.2725 14.35H84.9785L83.5505 12.418C83.1305 11.83 82.6265 11.368 82.0385 11.032C81.4505 10.668 80.7085 10.486 79.8125 10.486C78.3285 10.486 77.1665 11.102 76.3265 12.334C75.4865 13.566 75.0665 15.26 75.0665 17.416C75.0665 18.732 75.2765 19.964 75.6965 21.112C76.1445 22.26 76.8725 23.184 77.8805 23.884C78.9165 24.584 80.3165 24.934 82.0805 24.934C82.8645 24.934 83.7045 24.808 84.6005 24.556C85.4965 24.276 86.4485 23.87 87.4565 23.338H87.5825V23.842C86.9385 25.13 85.9585 26.222 84.6425 27.118C83.3265 27.986 81.8005 28.42 80.0645 28.42ZM93.0173 38.122C92.3733 38.122 91.9673 38.024 91.7993 37.828C91.6593 37.66 91.5893 37.352 91.5893 36.904V34.636L91.7573 34.426H93.6893C94.3893 34.426 94.9353 34.37 95.3273 34.258C95.7193 34.146 96.0833 33.838 96.4193 33.334C96.7553 32.858 97.1753 32.046 97.6793 30.898L99.0653 27.748L91.2113 10.99L88.4392 9.73V9.058H98.8553V9.73L95.5793 10.99V11.2L100.955 22.792H101.123L105.533 11.41V11.2L102.551 9.73V9.058H110.741V9.73L107.633 11.116L99.3173 31.318C99.0653 31.962 98.8413 32.494 98.6453 32.914C98.4773 33.362 98.2813 33.782 98.0573 34.174C97.8333 34.594 97.5113 35.098 97.0913 35.686C96.5313 36.498 95.8873 37.1 95.1593 37.492C94.4313 37.912 93.7173 38.122 93.0173 38.122Z" fill="white"/>
</svg>
