<svg width="107" height="106" viewBox="0 0 107 106" fill="none" xmlns="http://www.w3.org/2000/svg">
<path d="M23.0221 89.7503L24.5561 91.0668L24.2949 97.2203L25.5869 97.2053L27.8855 93.9239L29.2194 95.0686L23.076 103.839L21.742 102.694L24.6793 98.501C24.365 98.5771 24.0488 98.6515 23.7308 98.7244C23.4128 98.7973 23.0947 98.8701 22.7767 98.943L18.4571 99.8753L16.9509 98.5827L22.675 97.3477L23.0221 89.7503Z" fill="black"/>
<path d="M15.9565 79.0154L17.1667 80.8053L13.5217 90.6021L13.5586 90.6567C13.7695 90.4568 13.995 90.2479 14.2349 90.0302C14.4722 89.8085 14.7197 89.5845 14.9774 89.3584C15.2324 89.1282 15.4926 88.897 15.7579 88.6646L20.0671 85.095L20.9615 86.4177L12.7152 93.2485L11.5131 91.4708L15.1172 81.7174L15.0884 81.675C14.9021 81.8419 14.689 82.0342 14.449 82.2519C14.209 82.4697 13.9615 82.6936 13.7065 82.9238C13.445 83.153 13.1915 83.3724 12.9461 83.5821L8.60861 87.175L7.71017 85.8462L15.9565 79.0154Z" fill="black"/>
<path d="M6.97577 68.8758C7.73277 68.5473 8.45762 68.3469 9.15034 68.2746C9.83694 68.1997 10.4735 68.2606 11.06 68.4575C11.642 68.6563 12.1583 68.9977 12.6089 69.4819C13.0594 69.9661 13.4249 70.604 13.7053 71.3956C13.9906 72.2011 14.1175 72.9532 14.086 73.6519C14.0528 74.346 13.8815 74.9858 13.5721 75.5714C13.2612 76.1524 12.8286 76.6747 12.2745 77.1382C11.7203 77.6016 11.0648 77.9976 10.3078 78.3261C9.29546 78.7654 8.35273 78.9781 7.47958 78.964C6.60031 78.9473 5.82849 78.6796 5.16411 78.1608C4.49362 77.6393 3.96845 76.8423 3.58858 75.7699C3.21687 74.7205 3.1162 73.758 3.28659 72.8822C3.45698 72.0064 3.85953 71.2317 4.49425 70.558C5.12286 69.8817 5.95003 69.3209 6.97577 68.8758ZM9.70494 76.5805C10.4619 76.252 11.0806 75.8614 11.5611 75.4087C12.037 74.9579 12.3476 74.4487 12.4928 73.8812C12.632 73.3111 12.5792 72.6808 12.3347 71.9904C12.0885 71.2954 11.7402 70.7935 11.2897 70.4845C10.8347 70.1775 10.295 70.04 9.67071 70.0719C9.04192 70.1059 8.34903 70.2871 7.59204 70.6156C6.44088 71.1151 5.62451 71.7429 5.14295 72.4988C4.65527 73.252 4.59403 74.1442 4.95923 75.1751C5.20377 75.8655 5.55294 76.3698 6.00671 76.688C6.45885 77.0015 6.99789 77.1446 7.62383 77.1173C8.24529 77.0918 8.939 76.9129 9.70494 76.5805Z" fill="black"/>
<path d="M0.26458 51.8914L11.1297 53.76L11.2648 55.6742L4.99845 58.0095C4.84587 58.0668 4.66445 58.1315 4.45419 58.2035C4.24392 58.2756 4.02879 58.3481 3.8088 58.4211C3.58846 58.4891 3.38724 58.5506 3.20513 58.6056C3.01782 58.6561 2.8736 58.693 2.77247 58.7165C2.87531 58.7174 3.02037 58.7269 3.20763 58.745C3.39489 58.7631 3.60213 58.7869 3.82934 58.8162C4.05135 58.8411 4.27369 58.8709 4.49639 58.9056C4.71421 58.9406 4.90737 58.9729 5.07586 59.0025L11.5845 60.2039L11.719 62.1108L1.24726 65.8167L1.123 64.056L7.26775 61.9737C7.46376 61.9078 7.6768 61.8404 7.90687 61.7715C8.13173 61.6981 8.35936 61.6295 8.58977 61.5654C8.81984 61.4965 9.04539 61.4329 9.26641 61.3746C9.48257 61.3167 9.67979 61.2678 9.85806 61.2279C9.67149 61.2195 9.46494 61.2055 9.23841 61.1859C9.00702 61.1667 8.77303 61.1453 8.53643 61.1217C8.29463 61.0936 8.06255 61.0646 7.8402 61.0348C7.61751 61.0002 7.41671 60.9636 7.2378 60.9252L0.817787 59.7308L0.697143 58.0212L6.89106 55.6995C7.06727 55.6303 7.26555 55.5617 7.48589 55.4937C7.70588 55.4208 7.93091 55.3499 8.16098 55.281C8.39104 55.2121 8.61416 55.1487 8.83032 55.0908C9.04648 55.0329 9.24126 54.9842 9.41467 54.9447C9.1739 54.9312 8.89838 54.9109 8.58813 54.8839C8.27787 54.8568 7.96224 54.8228 7.64122 54.782C7.32021 54.7411 7.02352 54.6981 6.75115 54.6531L0.389348 53.6595L0.26458 51.8914Z" fill="black"/>
<path d="M15.1487 36.8391L5.97015 35.7852L5.94578 35.8465C6.13115 35.9206 6.38325 36.0245 6.70209 36.1583C7.02094 36.2921 7.36082 36.4388 7.72175 36.5985C8.08268 36.7582 8.42553 36.9173 8.75032 37.0756L14.0303 39.6496L13.44 41.1332L3.81484 36.4408L4.72743 34.1475L13.5072 35.1369L13.5234 35.0961L6.97508 28.4992L7.88497 26.2126L17.5101 30.9049L16.89 32.4633L11.531 29.8508C11.2369 29.7074 10.9205 29.5477 10.5818 29.3718C10.2448 29.1913 9.92547 29.0193 9.62366 28.8559C9.32365 28.688 9.08328 28.5546 8.90255 28.4556L8.88088 28.5101L15.7228 35.3964L15.1487 36.8391Z" fill="black"/>
<path d="M22.2569 15.9576C22.8492 16.5321 23.3238 17.1379 23.6807 17.7751C24.0371 18.405 24.2618 19.0526 24.3546 19.718C24.444 20.38 24.3894 21.0477 24.1907 21.7213C23.992 22.3949 23.6321 23.061 23.1108 23.7195C22.5804 24.3894 22.0251 24.8795 21.4448 25.1898C20.8676 25.4963 20.2749 25.6422 19.6668 25.6277C19.0617 25.6093 18.4519 25.4443 17.8374 25.1325C17.2229 24.8208 16.6195 24.3777 16.0272 23.8032C15.235 23.0349 14.6567 22.2235 14.2921 21.3691C13.9271 20.5075 13.8119 19.6276 13.9466 18.7296C14.0808 17.8243 14.501 16.9256 15.2072 16.0336C15.8982 15.1608 16.6356 14.5934 17.4192 14.3314C18.2028 14.0695 19.0044 14.0823 19.8241 14.3696C20.6433 14.6498 21.4542 15.1791 22.2569 15.9576ZM17.1833 22.3662C17.7757 22.9408 18.3589 23.3507 18.9329 23.5962C19.5035 23.8382 20.0501 23.8912 20.5729 23.7553C21.0952 23.6122 21.5836 23.2535 22.0382 22.6792C22.4959 22.1011 22.753 21.5181 22.8096 20.93C22.8627 20.3385 22.7418 19.7476 22.4471 19.1572C22.1489 18.5634 21.7036 17.9792 21.1112 17.4047C20.2104 16.531 19.3498 16.0449 18.5294 15.9463C17.7085 15.8405 16.9587 16.2163 16.2798 17.0739C15.8251 17.6481 15.5665 18.2331 15.5039 18.8288C15.4442 19.4207 15.5603 20.0138 15.852 20.608C16.1402 21.1989 16.584 21.7849 17.1833 22.3662Z" fill="black"/>
<path d="M24.9701 7.40866C25.7004 6.8445 26.3631 6.47384 26.9582 6.29668C27.5572 6.11654 28.095 6.13104 28.5716 6.34019C29.0521 6.54636 29.4812 6.94889 29.8588 7.54778C30.1401 7.99386 30.3024 8.43355 30.3458 8.86685C30.3891 9.30015 30.3503 9.71707 30.2294 10.1176C30.1084 10.5181 29.944 10.8908 29.7362 11.2356L34.6691 13.3859L33.0984 14.5993L28.7631 12.5493L27.401 13.6015L29.6902 17.2321L28.2991 18.3067L22.5878 9.24889L24.9701 7.40866ZM25.6586 8.71939L24.7602 9.41339L26.6275 12.3748L27.5897 11.6316C28.235 11.1331 28.6218 10.6439 28.7502 10.1639C28.8824 9.68097 28.7909 9.18961 28.4758 8.68985C28.145 8.1653 27.7542 7.91446 27.3031 7.93734C26.856 7.95723 26.3078 8.21791 25.6586 8.71939Z" fill="black"/>
<path d="M41.794 10.5856L36.2378 13.0159L32.6373 2.93141L38.1935 0.501111L38.691 1.89446L34.7453 3.62032L35.723 6.35873L39.4204 4.74147L39.9154 6.12792L36.218 7.74518L37.3484 10.9113L41.2941 9.1854L41.794 10.5856Z" fill="black"/>
<path d="M52.604 7.50122C52.604 7.10083 52.7065 6.82007 52.9116 6.65894C53.1216 6.49292 53.3755 6.40991 53.6733 6.40991C53.9712 6.40991 54.2251 6.49292 54.4351 6.65894C54.6499 6.82007 54.7573 7.10083 54.7573 7.50122C54.7573 7.89185 54.6499 8.17505 54.4351 8.35083C54.2251 8.52173 53.9712 8.60718 53.6733 8.60718C53.3755 8.60718 53.1216 8.52173 52.9116 8.35083C52.7065 8.17505 52.604 7.89185 52.604 7.50122Z" fill="black"/>
<path d="M75.1588 14.9066L73.3146 14.0788L71.9476 8.14758L70.6906 8.52027L69.3121 12.282L67.7085 11.5621L71.3927 1.50786L72.9963 2.22775L71.2349 7.03482C71.5216 6.87523 71.8105 6.71664 72.1017 6.55906C72.3929 6.40147 72.684 6.24388 72.9752 6.08629L76.9453 4.00048L78.756 4.81336L73.495 7.57693L75.1588 14.9066Z" fill="black"/>
<path d="M84.6412 23.1966L82.9938 21.7986L83.8626 11.3791L83.8124 11.3365C83.6632 11.5859 83.5025 11.8479 83.3301 12.1223C83.1615 12.3998 82.9836 12.6822 82.7964 12.9695C82.613 13.26 82.4249 13.5528 82.2321 13.8482L79.0457 18.448L77.8283 17.4149L83.9259 8.61253L85.5621 10.0011L84.721 20.3677L84.7601 20.4008C84.8945 20.1898 85.0478 19.9471 85.2202 19.6727C85.3925 19.3983 85.5704 19.1159 85.7539 18.8254C85.9439 18.5341 86.1287 18.2545 86.3085 17.9864L89.5158 13.3564L90.7387 14.3943L84.6412 23.1966Z" fill="black"/>
<path d="M95.6104 30.4172C94.9778 30.9471 94.3421 31.3433 93.7033 31.6058C93.071 31.8692 92.4506 31.9864 91.842 31.9573C91.2372 31.9251 90.6573 31.7357 90.1024 31.3891C89.5475 31.0425 89.0331 30.5226 88.559 29.8293C88.0767 29.124 87.7589 28.4266 87.6055 27.7374C87.4548 27.0521 87.4495 26.3814 87.5896 25.7253C87.7324 25.0732 88.006 24.4445 88.4105 23.8394C88.8151 23.2343 89.3336 22.6668 89.9662 22.1369C90.8121 21.4282 91.6515 20.9597 92.4843 20.7312C93.3235 20.5036 94.1267 20.5503 94.8937 20.8713C95.6672 21.1933 96.3751 21.8238 97.0172 22.763C97.6456 23.682 97.9938 24.5916 98.0619 25.4918C98.1299 26.392 97.951 27.2583 97.5252 28.0905C97.1058 28.9236 96.4675 29.6991 95.6104 30.4172ZM90.9968 23.6699C90.3642 24.1998 89.8792 24.7518 89.5419 25.326C89.2082 25.8971 89.047 26.4791 89.058 27.0721C89.0755 27.666 89.291 28.2653 89.7044 28.8699C90.1206 29.4785 90.5831 29.8708 91.0919 30.0468C91.6046 30.2196 92.1531 30.2039 92.7375 29.9996C93.3256 29.7921 93.936 29.4235 94.5686 28.8936C95.5305 28.0877 96.141 27.2499 96.3998 26.3801C96.6652 25.5112 96.4892 24.6253 95.8719 23.7225C95.4584 23.1179 94.9946 22.7235 94.4802 22.5395C93.9686 22.3595 93.4192 22.3696 92.832 22.5699C92.2486 22.767 91.6368 23.1337 90.9968 23.6699Z" fill="black"/>
<path d="M106.061 44.741L95.2609 46.1201L94.6563 44.2989L100.036 40.1855C100.167 40.0849 100.324 39.9686 100.506 39.8367C100.688 39.7048 100.875 39.571 101.066 39.4354C101.258 39.3045 101.434 39.1855 101.594 39.0785C101.76 38.9743 101.888 38.896 101.978 38.8434C101.88 38.8728 101.74 38.9062 101.557 38.9437C101.374 38.9811 101.171 39.019 100.948 39.0573C100.73 39.0984 100.512 39.1348 100.291 39.1666C100.075 39.1966 99.8833 39.222 99.7157 39.2429L93.2254 39.9892L92.6231 38.1749L101.663 31.4921L102.219 33.1673L96.8916 36.9989C96.7215 37.1207 96.5356 37.2489 96.3339 37.3836C96.1382 37.521 95.9388 37.6547 95.7355 37.7847C95.5338 37.9194 95.3351 38.0476 95.1393 38.1693C94.9481 38.2891 94.7727 38.3947 94.613 38.4859C94.7926 38.4392 94.9925 38.392 95.2129 38.3445C95.4378 38.2951 95.6657 38.2471 95.8967 38.2005C96.1337 38.1567 96.3616 38.1166 96.5805 38.0801C96.801 38.0483 97.0011 38.0248 97.1809 38.0095L103.585 37.2824L104.125 38.909L98.8106 42.9879C98.6602 43.1069 98.4886 43.2319 98.2959 43.3629C98.1048 43.4985 97.9084 43.6336 97.7067 43.7682C97.5049 43.9029 97.3085 44.0301 97.1172 44.15C96.926 44.2699 96.7528 44.3745 96.5977 44.4639C96.8301 44.4062 97.0972 44.3449 97.3991 44.2799C97.701 44.215 98.0097 44.1552 98.3252 44.1005C98.6407 44.0458 98.9337 44.0003 99.204 43.964L105.503 43.0588L106.061 44.741Z" fill="black"/>
<path d="M95.3146 63.4374L104.541 61.7636L104.549 61.6982C104.35 61.6818 104.077 61.6564 103.732 61.6221C103.387 61.5878 103.019 61.5472 102.626 61.5005C102.233 61.4538 101.859 61.4025 101.502 61.3465L95.6985 60.4369L95.9011 58.8532L106.48 60.5113L106.167 62.9596L97.346 64.5784L97.3404 64.622L105.395 68.9896L105.083 71.4306L94.5041 69.7725L94.7169 68.1088L100.607 69.032C100.93 69.0826 101.279 69.1423 101.654 69.211C102.029 69.2845 102.384 69.355 102.72 69.4224C103.055 69.4947 103.323 69.5516 103.524 69.593L103.532 69.5349L95.1175 64.9776L95.3146 63.4374Z" fill="black"/>
<path d="M93.7479 85.5009C93.0182 85.1154 92.3949 84.6678 91.878 84.1579C91.3634 83.6549 90.9724 83.0987 90.705 82.4895C90.442 81.8826 90.3176 81.2306 90.332 80.5335C90.3463 79.8364 90.5198 79.1023 90.8523 78.3311C91.1907 77.5465 91.6012 76.9265 92.0837 76.4713C92.5644 76.0206 93.1027 75.7187 93.6988 75.5657C94.2929 75.4171 94.9307 75.4072 95.612 75.536C96.2933 75.6647 96.9988 75.9218 97.7284 76.3073C98.7041 76.8227 99.4831 77.438 100.065 78.1529C100.65 78.8747 100.996 79.6824 101.104 80.576C101.214 81.4764 101.043 82.449 100.593 83.4937C100.152 84.516 99.5849 85.2596 98.8914 85.7245C98.198 86.1894 97.4139 86.3972 96.5393 86.348C95.667 86.3056 94.7365 86.0232 93.7479 85.5009ZM96.9846 77.9952C96.255 77.6098 95.578 77.3787 94.9537 77.3022C94.3337 77.2279 93.7873 77.3273 93.3143 77.6004C92.8438 77.8803 92.4635 78.3565 92.1734 79.0291C91.8815 79.7061 91.7861 80.3329 91.8874 80.9094C91.993 81.4881 92.2678 82.0187 92.7118 82.501C93.1601 82.9856 93.7491 83.4206 94.4787 83.8061C95.5883 84.3923 96.5557 84.6198 97.3808 84.4887C98.2084 84.3644 98.8387 83.8001 99.2718 82.7957C99.5618 82.1232 99.6582 81.4942 99.5608 80.9087C99.4614 80.3277 99.1907 79.7939 98.7486 79.3071C98.3109 78.8225 97.7229 78.3853 96.9846 77.9952Z" fill="black"/>
<path d="M93.3054 94.777C92.7557 95.5183 92.2189 96.0546 91.6949 96.386C91.168 96.7213 90.6474 96.8523 90.1332 96.779C89.6161 96.7096 89.0955 96.4369 88.5714 95.9609C88.1811 95.6063 87.9067 95.2258 87.7484 94.8193C87.5901 94.4129 87.5151 94.0002 87.5234 93.5811C87.5317 93.162 87.5893 92.758 87.6961 92.3693L82.3781 91.6244L83.5604 90.0301L88.2772 90.8393L89.3024 89.4567L86.1255 86.5708L87.1726 85.1588L95.0984 92.359L93.3054 94.777ZM92.2909 93.6979L92.9671 92.786L90.3758 90.4319L89.6516 91.4085C89.1659 92.0635 88.926 92.6398 88.932 93.1376C88.935 93.6392 89.1552 94.0887 89.5925 94.4859C90.0515 94.9029 90.4946 95.0396 90.9217 94.8959C91.3459 94.7561 91.8023 94.3568 92.2909 93.6979Z" fill="black"/>
<path d="M76.2412 96.5459L80.8793 92.6387L86.9463 101.462L82.3082 105.369L81.4699 104.15L84.7637 101.376L83.1162 98.9796L80.0297 101.58L79.1956 100.367L82.2821 97.7665L80.3773 94.9964L77.0836 97.771L76.2412 96.5459Z" fill="black"/>
<ellipse cx="52.3853" cy="101.926" rx="1.62992" ry="1.80407" fill="black"/>
</svg>
