<svg width="41" height="41" viewBox="0 0 41 41" fill="none" xmlns="http://www.w3.org/2000/svg">
<circle cx="20.5" cy="20.5" r="20" stroke="white"/>
<path d="M26.25 17.25V12.75H21.75" stroke="white" stroke-linecap="round" stroke-linejoin="round"/>
<path d="M21 18L26.25 12.75" stroke="white" stroke-linecap="round" stroke-linejoin="round"/>
<path d="M25.5001 24.69V26.94C25.5009 27.1488 25.4581 27.3556 25.3745 27.547C25.2908 27.7383 25.168 27.9101 25.0141 28.0513C24.8602 28.1926 24.6785 28.3001 24.4806 28.367C24.2828 28.4339 24.0731 28.4588 23.8651 28.44C21.5572 28.1892 19.3403 27.4006 17.3926 26.1375C15.5804 24.9859 14.0441 23.4496 12.8926 21.6375C11.6251 19.6809 10.8363 17.4532 10.5901 15.135C10.5713 14.9276 10.596 14.7185 10.6624 14.5212C10.7289 14.3238 10.8358 14.1425 10.9761 13.9887C11.1165 13.8349 11.2874 13.712 11.4779 13.6278C11.6684 13.5437 11.8743 13.5001 12.0826 13.5H14.3326C14.6966 13.4964 15.0494 13.6253 15.3254 13.8626C15.6014 14.0999 15.7816 14.4295 15.8326 14.79C15.9275 15.51 16.1037 16.217 16.3576 16.8975C16.4585 17.1659 16.4803 17.4576 16.4205 17.7381C16.3607 18.0186 16.2217 18.276 16.0201 18.48L15.0676 19.4325C16.1352 21.3101 17.6899 22.8648 19.5676 23.9325L20.5201 22.98C20.724 22.7783 20.9814 22.6393 21.2619 22.5795C21.5424 22.5197 21.8341 22.5415 22.1026 22.6425C22.783 22.8964 23.49 23.0725 24.2101 23.1675C24.5744 23.2188 24.9071 23.4024 25.145 23.6831C25.3828 23.9638 25.5092 24.3221 25.5001 24.69Z" stroke="white" stroke-linecap="round" stroke-linejoin="round"/>
</svg>
